<svg width="32" height="32" viewBox="0 0 32 32" fill="none" xmlns="http://www.w3.org/2000/svg">
<path fill-rule="evenodd" clip-rule="evenodd" d="M16 32C7.17811 32 0 24.8219 0 16C0 7.17811 7.17811 0 16 0C24.8219 0 32 7.17811 32 16C32 24.8219 24.8219 32 16 32ZM16 2.52632C8.57095 2.52632 2.52632 8.57095 2.52632 16C2.52632 23.4291 8.57095 29.4737 16 29.4737C23.4291 29.4737 29.4737 23.4291 29.4737 16C29.4737 8.57095 23.4291 2.52632 16 2.52632ZM15.9997 6.73675C13.209 6.73675 10.9471 8.99864 10.9471 11.7894C10.9471 14.5801 13.209 16.842 15.9997 16.842C18.7904 16.842 21.0523 14.5801 21.0523 11.7894C21.0523 8.99864 18.7904 6.73675 15.9997 6.73675ZM6.97607 20.5206C7.71713 19.8216 8.69397 19.3686 9.79207 19.3686H22.2081C23.3079 19.3686 24.283 19.8216 25.0241 20.5189C23.6868 23.1783 21.2144 25.1673 18.2418 25.8444C18.2195 25.8492 18.1973 25.8542 18.1751 25.8591C18.0592 25.8848 17.9431 25.9105 17.8258 25.9303C17.6321 25.9673 17.435 25.9976 17.2363 26.0212C16.8287 26.0684 16.4194 26.1054 16.0001 26.1054C15.5807 26.1054 15.1714 26.0684 14.7639 26.0229C14.5651 25.9976 14.3698 25.9673 14.1744 25.9319C14.0346 25.9067 13.8965 25.8764 13.7584 25.8461C10.7858 25.169 8.31334 23.18 6.97607 20.5206Z" fill="black"/>
</svg>
