<svg width="22" height="20" viewBox="0 0 22 20" fill="none" xmlns="http://www.w3.org/2000/svg">
<path fill-rule="evenodd" clip-rule="evenodd" d="M4.12492 1.05598C4.33378 1.05327 4.53543 1.13224 4.6869 1.27605L21.0035 17.5914C21.1475 17.7427 21.2267 17.9442 21.2242 18.1531C21.2217 18.362 21.1378 18.5616 20.9903 18.7095C20.8427 18.8573 20.6433 18.9417 20.4344 18.9447C20.2256 18.9476 20.0238 18.8689 19.8722 18.7252L16.9634 15.8164C15.2153 16.9937 13.1587 17.6784 10.9998 17.6784C6.52972 17.6784 2.45761 14.8067 0.761963 10.517V9.48169C1.64409 7.25609 3.2062 5.36571 5.22567 4.07994L3.55434 2.40861C3.41052 2.25714 3.33156 2.05549 3.33426 1.84663C3.33697 1.63778 3.42114 1.43824 3.56884 1.29055C3.71653 1.14285 3.91607 1.05868 4.12492 1.05598ZM12.6494 11.5024L9.49742 8.35041C9.04823 8.75992 8.76029 9.34476 8.76029 9.99999C8.76029 11.2349 9.76488 12.2395 10.9998 12.2395C11.655 12.2395 12.2399 11.9529 12.6494 11.5024ZM2.25925 9.99999C3.74502 13.7035 7.14399 16.0787 10.9998 16.0787C12.7111 16.0796 14.388 15.5984 15.8385 14.6902L13.7743 12.626C13.0781 13.3695 12.0978 13.8392 10.9998 13.8392C8.88314 13.8392 7.16062 12.1167 7.16062 9.99999C7.16101 9.47893 7.26896 8.96357 7.47771 8.48616C7.68647 8.00876 7.99153 7.57959 8.37381 7.22553L6.35567 5.20739C4.4942 6.3037 3.0524 7.99054 2.25925 9.99999ZM8.43161 2.67352C9.26471 2.46236 10.1209 2.32159 11 2.32159C15.4701 2.32159 19.5422 5.19331 21.2379 9.48169V10.517C20.7877 11.6446 20.1623 12.6941 19.3848 13.6267L18.2804 12.5223C18.8861 11.7562 19.3779 10.9067 19.7406 9.99998C18.2548 6.29644 14.8559 3.92126 11 3.92126C10.5897 3.92495 10.1801 3.95658 9.77405 4.01596L8.43161 2.67352Z" fill="#9595A2"/>
</svg>
