<svg width="34" height="35" viewBox="0 0 34 35" fill="none" xmlns="http://www.w3.org/2000/svg">
<path d="M33 18.368C33 17.2804 32.91 16.1869 32.7181 15.1169H17.3224V21.278H26.1388C25.7729 23.2651 24.5974 25.0229 22.8761 26.1398V30.1375H28.136C31.2247 27.3509 33 23.2357 33 18.368Z" fill="#4285F4"/>
<path d="M17.3222 34C21.7244 34 25.4369 32.5832 28.1418 30.1376L22.8819 26.1399C21.4185 27.1158 19.5293 27.6684 17.3282 27.6684C13.07 27.6684 9.45944 24.8525 8.16397 21.0665H2.7362V25.1876C5.50706 30.5902 11.1507 34 17.3222 34Z" fill="#34A853"/>
<path d="M8.15816 21.0663C7.47444 19.0793 7.47444 16.9276 8.15816 14.9405V10.8195H2.73638C0.421329 15.3403 0.421146 20.6667 2.7362 25.1876L8.15816 21.0663Z" fill="#FBBC04"/>
<path d="M17.3222 8.33264C19.6493 8.29736 21.8983 9.15568 23.5836 10.7312L28.2437 6.16333C25.2929 3.44728 21.3766 1.95405 17.3222 2.00108C11.1507 2.00108 5.50724 5.41088 2.73638 10.8195L8.15816 14.9405C9.44763 11.1487 13.064 8.33264 17.3222 8.33264Z" fill="#EA4335"/>
</svg>
