<svg width="20" height="20" viewBox="0 0 20 20" fill="none" xmlns="http://www.w3.org/2000/svg">
<path fill-rule="evenodd" clip-rule="evenodd" d="M9.21701 20H10.791C11.2219 19.9982 11.6409 19.8579 11.986 19.5999C12.3312 19.3419 12.5843 18.9798 12.708 18.567L13.243 16.762C13.5942 16.5907 13.9315 16.3925 14.252 16.169L16.053 16.617C16.4742 16.7211 16.9178 16.6857 17.3172 16.5162C17.7166 16.3467 18.0502 16.0522 18.268 15.677L19.055 14.314C19.2689 13.9401 19.3571 13.5074 19.3065 13.0796C19.2559 12.6519 19.0693 12.2517 18.774 11.938L17.475 10.568C17.5085 10.1793 17.5075 9.78848 17.472 9.4L18.758 8.066C19.374 7.427 19.495 6.445 19.051 5.677L18.264 4.314C18.046 3.94269 17.7151 3.65074 17.3195 3.48074C16.924 3.31075 16.4844 3.27159 16.065 3.369L14.225 3.811C13.907 3.591 13.578 3.399 13.244 3.237L12.709 1.432C12.459 0.589 11.67 0 10.791 0H9.21701C8.78304 0.0017003 8.36127 0.143736 8.01468 0.404895C7.66809 0.666053 7.41528 1.03232 7.29401 1.449L6.78401 3.226C6.43801 3.392 6.10001 3.587 5.77401 3.812L3.93401 3.37C3.51459 3.27081 3.07439 3.30912 2.67842 3.47929C2.28245 3.64945 1.9517 3.94245 1.73501 4.315L0.948009 5.678C0.73218 6.05441 0.64408 6.4906 0.696899 6.92127C0.749719 7.35193 0.940616 7.75391 1.24101 8.067L2.52801 9.4C2.49276 9.78849 2.49176 10.1793 2.52501 10.568L1.22601 11.938C0.930815 12.2519 0.744189 12.6523 0.693603 13.0802C0.643017 13.5081 0.731143 13.9409 0.945009 14.315L1.73201 15.679C1.9504 16.0537 2.28411 16.3476 2.68331 16.5171C3.08252 16.6865 3.52581 16.7222 3.94701 16.619L5.74801 16.171C6.07731 16.3992 6.42404 16.6012 6.78501 16.775L7.29501 18.552C7.41613 18.9685 7.66879 19.3346 8.01522 19.5956C8.36166 19.8566 8.78326 19.9985 9.21701 20ZM6.36201 14.762L5.72501 14.63L3.58501 15.163C3.47967 15.1888 3.36882 15.1798 3.26899 15.1375C3.16915 15.0951 3.08568 15.0217 3.03101 14.928L2.24401 13.565C2.19057 13.4715 2.16853 13.3634 2.18113 13.2565C2.19373 13.1495 2.24031 13.0495 2.31401 12.971L3.85101 11.35L4.05101 10.742C4.02101 10.499 4.00001 10.252 4.00001 10C4.00209 9.7421 4.02046 9.48458 4.05501 9.229L3.85101 8.612L2.32001 7.025C2.24515 6.94663 2.19761 6.84619 2.18445 6.73861C2.1713 6.63104 2.19324 6.52209 2.24701 6.428L3.03401 5.065C3.08844 4.97206 3.17121 4.89899 3.27019 4.85652C3.36917 4.81405 3.47915 4.80441 3.58401 4.829L5.75901 5.351L6.38701 5.218C6.78971 4.91045 7.22991 4.6554 7.69701 4.459L8.13001 3.974L8.73601 1.862C8.76642 1.75786 8.82969 1.66634 8.91638 1.6011C9.00306 1.53586 9.10852 1.5004 9.21701 1.5H10.791C10.8989 1.50042 11.0039 1.53555 11.0903 1.60019C11.1768 1.66484 11.2401 1.75558 11.271 1.859L11.903 3.992L12.33 4.47C12.7869 4.66625 13.2178 4.91816 13.613 5.22L14.24 5.351L16.415 4.829C16.5199 4.80424 16.6299 4.81381 16.7289 4.8563C16.8279 4.89879 16.9107 4.97194 16.965 5.065L17.752 6.429C17.806 6.52285 17.8281 6.6317 17.8149 6.73918C17.8018 6.84666 17.7541 6.94696 17.679 7.025L16.148 8.612L15.944 9.229C15.9794 9.48451 15.9981 9.74206 16 10C16 10.252 15.979 10.499 15.948 10.74L16.149 11.348L17.686 12.969C17.7597 13.0475 17.8063 13.1475 17.8189 13.2545C17.8315 13.3614 17.8094 13.4695 17.756 13.563L16.969 14.926C16.9144 15.0197 16.8309 15.0933 16.7311 15.1358C16.6313 15.1784 16.5205 15.1875 16.415 15.162L14.274 14.629L13.637 14.761C13.22 15.081 12.78 15.339 12.33 15.529L11.902 16.007L11.27 18.141C11.208 18.352 11.011 18.499 10.791 18.499H9.21701C9.10852 18.4986 9.00306 18.4631 8.91638 18.3979C8.82969 18.3327 8.76642 18.2411 8.73601 18.137L8.13001 16.025L7.69801 15.54C7.23401 15.347 6.78501 15.085 6.36201 14.762ZM6.5 10C6.5 11.93 8.07 13.5 10 13.5C11.93 13.5 13.5 11.93 13.5 10C13.5 8.07 11.93 6.5 10 6.5C8.07 6.5 6.5 8.07 6.5 10ZM8 10C8 8.897 8.897 8 10 8C11.103 8 12 8.897 12 10C12 11.103 11.103 12 10 12C8.897 12 8 11.103 8 10Z" fill="black"/>
</svg>
