<svg width="22" height="20" viewBox="0 0 22 20" fill="none" xmlns="http://www.w3.org/2000/svg">
<path fill-rule="evenodd" clip-rule="evenodd" d="M11 2.35001C15.4536 2.35001 19.5107 5.21111 21.2 9.48363V10.5164C19.5107 14.7889 15.4536 17.65 11 17.65C6.54647 17.65 2.48942 14.7889 0.800049 10.5151V9.48363C2.48942 5.21111 6.54647 2.35001 11 2.35001ZM2.2918 10C3.77207 13.6899 7.15847 16.0563 11 16.0563C14.8416 16.0563 18.228 13.6899 19.7083 10C18.228 6.31016 14.8416 3.94376 11 3.94376C7.15847 3.94376 3.77207 6.31016 2.2918 10ZM7.17505 10C7.17505 12.1089 8.8912 13.825 11 13.825C13.1089 13.825 14.825 12.1089 14.825 10C14.825 7.89116 13.1089 6.17501 11 6.17501C8.8912 6.17501 7.17505 7.89116 7.17505 10ZM8.7688 10C8.7688 8.76963 9.76967 7.76876 11 7.76876C12.2304 7.76876 13.2313 8.76963 13.2313 10C13.2313 11.2304 12.2304 12.2313 11 12.2313C9.76967 12.2313 8.7688 11.2304 8.7688 10Z" fill="#9595A2"/>
</svg>
